<svg width="133" height="40" viewBox="0 0 133 40" fill="none" xmlns="http://www.w3.org/2000/svg">
<rect width="133" height="39.2" rx="19.6" fill="#181818"/>
<path d="M14.2382 24.6872C14.4732 24.6872 14.6638 24.4967 14.6638 24.2616C14.6638 24.0265 14.4732 23.8359 14.2382 23.8359C14.0031 23.8359 13.8125 24.0265 13.8125 24.2616C13.8125 24.4967 14.0031 24.6872 14.2382 24.6872Z" fill="white"/>
<path d="M15.16 23.7634C15.3951 23.7634 15.5857 23.5728 15.5857 23.3378C15.5857 23.1027 15.3951 22.9121 15.16 22.9121C14.9249 22.9121 14.7344 23.1027 14.7344 23.3378C14.7344 23.5728 14.9249 23.7634 15.16 23.7634Z" fill="white"/>
<path d="M16.1053 22.8337C16.3404 22.8337 16.531 22.6432 16.531 22.4081C16.531 22.173 16.3404 21.9824 16.1053 21.9824C15.8703 21.9824 15.6797 22.173 15.6797 22.4081C15.6797 22.6432 15.8703 22.8337 16.1053 22.8337Z" fill="white"/>
<path d="M17.035 21.906C17.2701 21.906 17.4607 21.7154 17.4607 21.4803C17.4607 21.2453 17.2701 21.0547 17.035 21.0547C16.7999 21.0547 16.6094 21.2453 16.6094 21.4803C16.6094 21.7154 16.7999 21.906 17.035 21.906Z" fill="white"/>
<path d="M17.9725 20.9783C18.2076 20.9783 18.3982 20.7877 18.3982 20.5526C18.3982 20.3175 18.2076 20.127 17.9725 20.127C17.7374 20.127 17.5469 20.3175 17.5469 20.5526C17.5469 20.7877 17.7374 20.9783 17.9725 20.9783Z" fill="white"/>
<path d="M18.8944 20.0525C19.1295 20.0525 19.3201 19.8619 19.3201 19.6268C19.3201 19.3917 19.1295 19.2012 18.8944 19.2012C18.6593 19.2012 18.4688 19.3917 18.4688 19.6268C18.4688 19.8619 18.6593 20.0525 18.8944 20.0525Z" fill="white"/>
<path d="M19.8319 19.1247C20.067 19.1247 20.2576 18.9342 20.2576 18.6991C20.2576 18.464 20.067 18.2734 19.8319 18.2734C19.5968 18.2734 19.4062 18.464 19.4062 18.6991C19.4062 18.9342 19.5968 19.1247 19.8319 19.1247Z" fill="white"/>
<path d="M20.7616 18.199C20.9967 18.199 21.1873 18.0084 21.1873 17.7733C21.1873 17.5382 20.9967 17.3477 20.7616 17.3477C20.5265 17.3477 20.3359 17.5382 20.3359 17.7733C20.3359 18.0084 20.5265 18.199 20.7616 18.199Z" fill="white"/>
<path d="M21.6991 17.2693C21.9342 17.2693 22.1247 17.0787 22.1247 16.8436C22.1247 16.6085 21.9342 16.418 21.6991 16.418C21.464 16.418 21.2734 16.6085 21.2734 16.8436C21.2734 17.0787 21.464 17.2693 21.6991 17.2693Z" fill="white"/>
<path d="M22.6288 16.3415C22.8639 16.3415 23.0544 16.151 23.0544 15.9159C23.0544 15.6808 22.8639 15.4902 22.6288 15.4902C22.3937 15.4902 22.2031 15.6808 22.2031 15.9159C22.2031 16.151 22.3937 16.3415 22.6288 16.3415Z" fill="white"/>
<path d="M23.5663 15.4138C23.8014 15.4138 23.9919 15.2232 23.9919 14.9882C23.9919 14.7531 23.8014 14.5625 23.5663 14.5625C23.3312 14.5625 23.1406 14.7531 23.1406 14.9882C23.1406 15.2232 23.3312 15.4138 23.5663 15.4138Z" fill="white"/>
<path d="M14.246 15.3865C14.4811 15.3865 14.6716 15.1959 14.6716 14.9608C14.6716 14.7257 14.4811 14.5352 14.246 14.5352C14.0109 14.5352 13.8203 14.7257 13.8203 14.9608C13.8203 15.1959 14.0109 15.3865 14.246 15.3865Z" fill="white"/>
<path d="M15.1678 16.3162C15.4029 16.3162 15.5935 16.1256 15.5935 15.8905C15.5935 15.6554 15.4029 15.4648 15.1678 15.4648C14.9328 15.4648 14.7422 15.6554 14.7422 15.8905C14.7422 16.1256 14.9328 16.3162 15.1678 16.3162Z" fill="white"/>
<path d="M16.1053 17.2497C16.3404 17.2497 16.531 17.0592 16.531 16.8241C16.531 16.589 16.3404 16.3984 16.1053 16.3984C15.8703 16.3984 15.6797 16.589 15.6797 16.8241C15.6797 17.0592 15.8703 17.2497 16.1053 17.2497Z" fill="white"/>
<path d="M17.0272 18.1833C17.2623 18.1833 17.4529 17.9928 17.4529 17.7577C17.4529 17.5226 17.2623 17.332 17.0272 17.332C16.7921 17.332 16.6016 17.5226 16.6016 17.7577C16.6016 17.9928 16.7921 18.1833 17.0272 18.1833Z" fill="white"/>
<path d="M17.9413 19.1169C18.1764 19.1169 18.3669 18.9264 18.3669 18.6913C18.3669 18.4562 18.1764 18.2656 17.9413 18.2656C17.7062 18.2656 17.5156 18.4562 17.5156 18.6913C17.5156 18.9264 17.7062 19.1169 17.9413 19.1169Z" fill="white"/>
<path d="M18.8944 20.0466C19.1295 20.0466 19.3201 19.8561 19.3201 19.621C19.3201 19.3859 19.1295 19.1953 18.8944 19.1953C18.6593 19.1953 18.4688 19.3859 18.4688 19.621C18.4688 19.8561 18.6593 20.0466 18.8944 20.0466Z" fill="white"/>
<path d="M19.8007 20.9822C20.0357 20.9822 20.2263 20.7916 20.2263 20.5565C20.2263 20.3214 20.0357 20.1309 19.8007 20.1309C19.5656 20.1309 19.375 20.3214 19.375 20.5565C19.375 20.7916 19.5656 20.9822 19.8007 20.9822Z" fill="white"/>
<path d="M20.7382 21.9119C20.9732 21.9119 21.1638 21.7213 21.1638 21.4862C21.1638 21.2511 20.9732 21.0605 20.7382 21.0605C20.5031 21.0605 20.3125 21.2511 20.3125 21.4862C20.3125 21.7213 20.5031 21.9119 20.7382 21.9119Z" fill="white"/>
<path d="M21.6757 22.8455C21.9107 22.8455 22.1013 22.6549 22.1013 22.4198C22.1013 22.1847 21.9107 21.9941 21.6757 21.9941C21.4406 21.9941 21.25 22.1847 21.25 22.4198C21.25 22.6549 21.4406 22.8455 21.6757 22.8455Z" fill="white"/>
<path d="M22.5897 23.779C22.8248 23.779 23.0154 23.5885 23.0154 23.3534C23.0154 23.1183 22.8248 22.9277 22.5897 22.9277C22.3546 22.9277 22.1641 23.1183 22.1641 23.3534C22.1641 23.5885 22.3546 23.779 22.5897 23.779Z" fill="white"/>
<path d="M23.5194 24.7068C23.7545 24.7068 23.9451 24.5162 23.9451 24.2811C23.9451 24.046 23.7545 23.8555 23.5194 23.8555C23.2843 23.8555 23.0938 24.046 23.0938 24.2811C23.0938 24.5162 23.2843 24.7068 23.5194 24.7068Z" fill="white"/>
<path d="M12.3163 20.033C12.5514 20.033 12.7419 19.8424 12.7419 19.6073C12.7419 19.3722 12.5514 19.1816 12.3163 19.1816C12.0812 19.1816 11.8906 19.3722 11.8906 19.6073C11.8906 19.8424 12.0812 20.033 12.3163 20.033Z" fill="white"/>
<path d="M13.6366 20.0388C13.8717 20.0388 14.0622 19.8482 14.0622 19.6132C14.0622 19.3781 13.8717 19.1875 13.6366 19.1875C13.4015 19.1875 13.2109 19.3781 13.2109 19.6132C13.2109 19.8482 13.4015 20.0388 13.6366 20.0388Z" fill="white"/>
<path d="M14.9413 20.0408C15.1764 20.0408 15.3669 19.8502 15.3669 19.6151C15.3669 19.38 15.1764 19.1895 14.9413 19.1895C14.7062 19.1895 14.5156 19.38 14.5156 19.6151C14.5156 19.8502 14.7062 20.0408 14.9413 20.0408Z" fill="white"/>
<path d="M16.2538 20.0427C16.4889 20.0427 16.6794 19.8521 16.6794 19.6171C16.6794 19.382 16.4889 19.1914 16.2538 19.1914C16.0187 19.1914 15.8281 19.382 15.8281 19.6171C15.8281 19.8521 16.0187 20.0427 16.2538 20.0427Z" fill="white"/>
<path d="M21.5194 20.0583C21.7545 20.0583 21.9451 19.8678 21.9451 19.6327C21.9451 19.3976 21.7545 19.207 21.5194 19.207C21.2843 19.207 21.0938 19.3976 21.0938 19.6327C21.0938 19.8678 21.2843 20.0583 21.5194 20.0583Z" fill="white"/>
<path d="M22.8475 20.0603C23.0826 20.0603 23.2732 19.8697 23.2732 19.6346C23.2732 19.3996 23.0826 19.209 22.8475 19.209C22.6124 19.209 22.4219 19.3996 22.4219 19.6346C22.4219 19.8697 22.6124 20.0603 22.8475 20.0603Z" fill="white"/>
<path d="M24.1444 20.0642C24.3795 20.0642 24.5701 19.8736 24.5701 19.6385C24.5701 19.4035 24.3795 19.2129 24.1444 19.2129C23.9093 19.2129 23.7188 19.4035 23.7188 19.6385C23.7188 19.8736 23.9093 20.0642 24.1444 20.0642Z" fill="white"/>
<path d="M25.4647 20.0662C25.6998 20.0662 25.8904 19.8756 25.8904 19.6405C25.8904 19.4054 25.6998 19.2148 25.4647 19.2148C25.2296 19.2148 25.0391 19.4054 25.0391 19.6405C25.0391 19.8756 25.2296 20.0662 25.4647 20.0662Z" fill="white"/>
<path d="M18.91 13.4509C19.1451 13.4509 19.3357 13.2603 19.3357 13.0253C19.3357 12.7902 19.1451 12.5996 18.91 12.5996C18.6749 12.5996 18.4844 12.7902 18.4844 13.0253C18.4844 13.2603 18.6749 13.4509 18.91 13.4509Z" fill="white"/>
<path d="M18.91 14.7634C19.1451 14.7634 19.3357 14.5728 19.3357 14.3378C19.3357 14.1027 19.1451 13.9121 18.91 13.9121C18.6749 13.9121 18.4844 14.1027 18.4844 14.3378C18.4844 14.5728 18.6749 14.7634 18.91 14.7634Z" fill="white"/>
<path d="M18.8944 16.0798C19.1295 16.0798 19.3201 15.8893 19.3201 15.6542C19.3201 15.4191 19.1295 15.2285 18.8944 15.2285C18.6593 15.2285 18.4688 15.4191 18.4688 15.6542C18.4688 15.8893 18.6593 16.0798 18.8944 16.0798Z" fill="white"/>
<path d="M18.8944 17.3962C19.1295 17.3962 19.3201 17.2057 19.3201 16.9706C19.3201 16.7355 19.1295 16.5449 18.8944 16.5449C18.6593 16.5449 18.4688 16.7355 18.4688 16.9706C18.4688 17.2057 18.6593 17.3962 18.8944 17.3962Z" fill="white"/>
<path d="M18.8788 22.656C19.1139 22.656 19.3044 22.4654 19.3044 22.2303C19.3044 21.9953 19.1139 21.8047 18.8788 21.8047C18.6437 21.8047 18.4531 21.9953 18.4531 22.2303C18.4531 22.4654 18.6437 22.656 18.8788 22.656Z" fill="white"/>
<path d="M18.8788 23.9685C19.1139 23.9685 19.3044 23.7779 19.3044 23.5428C19.3044 23.3078 19.1139 23.1172 18.8788 23.1172C18.6437 23.1172 18.4531 23.3078 18.4531 23.5428C18.4531 23.7779 18.6437 23.9685 18.8788 23.9685Z" fill="white"/>
<path d="M18.8788 25.2849C19.1139 25.2849 19.3044 25.0943 19.3044 24.8592C19.3044 24.6242 19.1139 24.4336 18.8788 24.4336C18.6437 24.4336 18.4531 24.6242 18.4531 24.8592C18.4531 25.0943 18.6437 25.2849 18.8788 25.2849Z" fill="white"/>
<path d="M18.8632 26.5994C19.0982 26.5994 19.2888 26.4088 19.2888 26.1737C19.2888 25.9386 19.0982 25.748 18.8632 25.748C18.6281 25.748 18.4375 25.9386 18.4375 26.1737C18.4375 26.4088 18.6281 26.5994 18.8632 26.5994Z" fill="white"/>
<path d="M109.441 24.6872C109.676 24.6872 109.867 24.4967 109.867 24.2616C109.867 24.0265 109.676 23.8359 109.441 23.8359C109.206 23.8359 109.016 24.0265 109.016 24.2616C109.016 24.4967 109.206 24.6872 109.441 24.6872Z" fill="white"/>
<path d="M110.363 23.7634C110.598 23.7634 110.789 23.5728 110.789 23.3378C110.789 23.1027 110.598 22.9121 110.363 22.9121C110.128 22.9121 109.938 23.1027 109.938 23.3378C109.938 23.5728 110.128 23.7634 110.363 23.7634Z" fill="white"/>
<path d="M111.308 22.8337C111.544 22.8337 111.734 22.6432 111.734 22.4081C111.734 22.173 111.544 21.9824 111.308 21.9824C111.073 21.9824 110.883 22.173 110.883 22.4081C110.883 22.6432 111.073 22.8337 111.308 22.8337Z" fill="white"/>
<path d="M112.238 21.906C112.473 21.906 112.664 21.7154 112.664 21.4803C112.664 21.2453 112.473 21.0547 112.238 21.0547C112.003 21.0547 111.812 21.2453 111.812 21.4803C111.812 21.7154 112.003 21.906 112.238 21.906Z" fill="white"/>
<path d="M113.176 20.9783C113.411 20.9783 113.601 20.7877 113.601 20.5526C113.601 20.3175 113.411 20.127 113.176 20.127C112.941 20.127 112.75 20.3175 112.75 20.5526C112.75 20.7877 112.941 20.9783 113.176 20.9783Z" fill="white"/>
<path d="M114.098 20.0525C114.333 20.0525 114.523 19.8619 114.523 19.6268C114.523 19.3917 114.333 19.2012 114.098 19.2012C113.862 19.2012 113.672 19.3917 113.672 19.6268C113.672 19.8619 113.862 20.0525 114.098 20.0525Z" fill="white"/>
<path d="M115.035 19.1247C115.27 19.1247 115.461 18.9342 115.461 18.6991C115.461 18.464 115.27 18.2734 115.035 18.2734C114.8 18.2734 114.609 18.464 114.609 18.6991C114.609 18.9342 114.8 19.1247 115.035 19.1247Z" fill="white"/>
<path d="M115.965 18.199C116.2 18.199 116.39 18.0084 116.39 17.7733C116.39 17.5382 116.2 17.3477 115.965 17.3477C115.73 17.3477 115.539 17.5382 115.539 17.7733C115.539 18.0084 115.73 18.199 115.965 18.199Z" fill="white"/>
<path d="M116.902 17.2673C117.137 17.2673 117.328 17.0768 117.328 16.8417C117.328 16.6066 117.137 16.416 116.902 16.416C116.667 16.416 116.477 16.6066 116.477 16.8417C116.477 17.0768 116.667 17.2673 116.902 17.2673Z" fill="white"/>
<path d="M117.832 16.3415C118.067 16.3415 118.258 16.151 118.258 15.9159C118.258 15.6808 118.067 15.4902 117.832 15.4902C117.597 15.4902 117.406 15.6808 117.406 15.9159C117.406 16.151 117.597 16.3415 117.832 16.3415Z" fill="white"/>
<path d="M118.769 15.4138C119.004 15.4138 119.195 15.2232 119.195 14.9882C119.195 14.7531 119.004 14.5625 118.769 14.5625C118.534 14.5625 118.344 14.7531 118.344 14.9882C118.344 15.2232 118.534 15.4138 118.769 15.4138Z" fill="white"/>
<path d="M109.449 15.3865C109.684 15.3865 109.875 15.1959 109.875 14.9608C109.875 14.7257 109.684 14.5352 109.449 14.5352C109.214 14.5352 109.023 14.7257 109.023 14.9608C109.023 15.1959 109.214 15.3865 109.449 15.3865Z" fill="white"/>
<path d="M110.371 16.3162C110.606 16.3162 110.797 16.1256 110.797 15.8905C110.797 15.6554 110.606 15.4648 110.371 15.4648C110.136 15.4648 109.945 15.6554 109.945 15.8905C109.945 16.1256 110.136 16.3162 110.371 16.3162Z" fill="white"/>
<path d="M111.308 17.2497C111.544 17.2497 111.734 17.0592 111.734 16.8241C111.734 16.589 111.544 16.3984 111.308 16.3984C111.073 16.3984 110.883 16.589 110.883 16.8241C110.883 17.0592 111.073 17.2497 111.308 17.2497Z" fill="white"/>
<path d="M112.23 18.1833C112.465 18.1833 112.656 17.9928 112.656 17.7577C112.656 17.5226 112.465 17.332 112.23 17.332C111.995 17.332 111.805 17.5226 111.805 17.7577C111.805 17.9928 111.995 18.1833 112.23 18.1833Z" fill="white"/>
<path d="M113.144 19.1169C113.379 19.1169 113.57 18.9264 113.57 18.6913C113.57 18.4562 113.379 18.2656 113.144 18.2656C112.909 18.2656 112.719 18.4562 112.719 18.6913C112.719 18.9264 112.909 19.1169 113.144 19.1169Z" fill="white"/>
<path d="M114.098 20.0466C114.333 20.0466 114.523 19.8561 114.523 19.621C114.523 19.3859 114.333 19.1953 114.098 19.1953C113.862 19.1953 113.672 19.3859 113.672 19.621C113.672 19.8561 113.862 20.0466 114.098 20.0466Z" fill="white"/>
<path d="M115.004 20.9822C115.239 20.9822 115.429 20.7916 115.429 20.5565C115.429 20.3214 115.239 20.1309 115.004 20.1309C114.769 20.1309 114.578 20.3214 114.578 20.5565C114.578 20.7916 114.769 20.9822 115.004 20.9822Z" fill="white"/>
<path d="M115.941 21.9119C116.176 21.9119 116.367 21.7213 116.367 21.4862C116.367 21.2511 116.176 21.0605 115.941 21.0605C115.706 21.0605 115.516 21.2511 115.516 21.4862C115.516 21.7213 115.706 21.9119 115.941 21.9119Z" fill="white"/>
<path d="M116.879 22.8455C117.114 22.8455 117.304 22.6549 117.304 22.4198C117.304 22.1847 117.114 21.9941 116.879 21.9941C116.644 21.9941 116.453 22.1847 116.453 22.4198C116.453 22.6549 116.644 22.8455 116.879 22.8455Z" fill="white"/>
<path d="M117.793 23.779C118.028 23.779 118.218 23.5885 118.218 23.3534C118.218 23.1183 118.028 22.9277 117.793 22.9277C117.558 22.9277 117.367 23.1183 117.367 23.3534C117.367 23.5885 117.558 23.779 117.793 23.779Z" fill="white"/>
<path d="M118.723 24.7068C118.958 24.7068 119.148 24.5162 119.148 24.2811C119.148 24.046 118.958 23.8555 118.723 23.8555C118.487 23.8555 118.297 24.046 118.297 24.2811C118.297 24.5162 118.487 24.7068 118.723 24.7068Z" fill="white"/>
<path d="M107.519 20.033C107.754 20.033 107.945 19.8424 107.945 19.6073C107.945 19.3722 107.754 19.1816 107.519 19.1816C107.284 19.1816 107.094 19.3722 107.094 19.6073C107.094 19.8424 107.284 20.033 107.519 20.033Z" fill="white"/>
<path d="M108.84 20.0388C109.075 20.0388 109.265 19.8482 109.265 19.6132C109.265 19.3781 109.075 19.1875 108.84 19.1875C108.605 19.1875 108.414 19.3781 108.414 19.6132C108.414 19.8482 108.605 20.0388 108.84 20.0388Z" fill="white"/>
<path d="M110.144 20.0408C110.379 20.0408 110.57 19.8502 110.57 19.6151C110.57 19.38 110.379 19.1895 110.144 19.1895C109.909 19.1895 109.719 19.38 109.719 19.6151C109.719 19.8502 109.909 20.0408 110.144 20.0408Z" fill="white"/>
<path d="M111.457 20.0427C111.692 20.0427 111.883 19.8521 111.883 19.6171C111.883 19.382 111.692 19.1914 111.457 19.1914C111.222 19.1914 111.031 19.382 111.031 19.6171C111.031 19.8521 111.222 20.0427 111.457 20.0427Z" fill="white"/>
<path d="M116.723 20.0583C116.958 20.0583 117.148 19.8678 117.148 19.6327C117.148 19.3976 116.958 19.207 116.723 19.207C116.487 19.207 116.297 19.3976 116.297 19.6327C116.297 19.8678 116.487 20.0583 116.723 20.0583Z" fill="white"/>
<path d="M118.051 20.0603C118.286 20.0603 118.476 19.8697 118.476 19.6346C118.476 19.3996 118.286 19.209 118.051 19.209C117.816 19.209 117.625 19.3996 117.625 19.6346C117.625 19.8697 117.816 20.0603 118.051 20.0603Z" fill="white"/>
<path d="M119.348 20.0642C119.583 20.0642 119.773 19.8736 119.773 19.6385C119.773 19.4035 119.583 19.2129 119.348 19.2129C119.112 19.2129 118.922 19.4035 118.922 19.6385C118.922 19.8736 119.112 20.0642 119.348 20.0642Z" fill="white"/>
<path d="M120.668 20.0662C120.903 20.0662 121.093 19.8756 121.093 19.6405C121.093 19.4054 120.903 19.2148 120.668 19.2148C120.433 19.2148 120.242 19.4054 120.242 19.6405C120.242 19.8756 120.433 20.0662 120.668 20.0662Z" fill="white"/>
<path d="M114.113 13.4509C114.348 13.4509 114.539 13.2603 114.539 13.0253C114.539 12.7902 114.348 12.5996 114.113 12.5996C113.878 12.5996 113.688 12.7902 113.688 13.0253C113.688 13.2603 113.878 13.4509 114.113 13.4509Z" fill="white"/>
<path d="M114.113 14.7634C114.348 14.7634 114.539 14.5728 114.539 14.3378C114.539 14.1027 114.348 13.9121 114.113 13.9121C113.878 13.9121 113.688 14.1027 113.688 14.3378C113.688 14.5728 113.878 14.7634 114.113 14.7634Z" fill="white"/>
<path d="M114.098 16.0798C114.333 16.0798 114.523 15.8893 114.523 15.6542C114.523 15.4191 114.333 15.2285 114.098 15.2285C113.862 15.2285 113.672 15.4191 113.672 15.6542C113.672 15.8893 113.862 16.0798 114.098 16.0798Z" fill="white"/>
<path d="M114.098 17.3962C114.333 17.3962 114.523 17.2057 114.523 16.9706C114.523 16.7355 114.333 16.5449 114.098 16.5449C113.862 16.5449 113.672 16.7355 113.672 16.9706C113.672 17.2057 113.862 17.3962 114.098 17.3962Z" fill="white"/>
<path d="M114.082 22.656C114.317 22.656 114.508 22.4654 114.508 22.2303C114.508 21.9953 114.317 21.8047 114.082 21.8047C113.847 21.8047 113.656 21.9953 113.656 22.2303C113.656 22.4654 113.847 22.656 114.082 22.656Z" fill="white"/>
<path d="M114.082 23.9685C114.317 23.9685 114.508 23.7779 114.508 23.5428C114.508 23.3078 114.317 23.1172 114.082 23.1172C113.847 23.1172 113.656 23.3078 113.656 23.5428C113.656 23.7779 113.847 23.9685 114.082 23.9685Z" fill="white"/>
<path d="M114.082 25.2849C114.317 25.2849 114.508 25.0943 114.508 24.8592C114.508 24.6242 114.317 24.4336 114.082 24.4336C113.847 24.4336 113.656 24.6242 113.656 24.8592C113.656 25.0943 113.847 25.2849 114.082 25.2849Z" fill="white"/>
<path d="M114.066 26.5994C114.301 26.5994 114.492 26.4088 114.492 26.1737C114.492 25.9386 114.301 25.748 114.066 25.748C113.831 25.748 113.641 25.9386 113.641 26.1737C113.641 26.4088 113.831 26.5994 114.066 26.5994Z" fill="white"/>
<path d="M36.7213 24.5996V14.5896H40.9633C42.0133 14.5896 42.8113 14.8696 43.3713 15.4576C43.7773 15.8776 44.0153 16.4516 44.0153 17.1656C44.0153 18.2716 43.3993 18.9576 42.4053 19.2656V19.3076C43.5393 19.5736 44.4213 20.3856 44.4213 21.7296C44.4213 22.4996 44.1553 23.1576 43.6933 23.6476C43.1333 24.2496 42.2653 24.5996 41.1873 24.5996H36.7213ZM37.9813 18.8736H40.8093C42.0273 18.8736 42.7553 18.2716 42.7553 17.2356C42.7553 16.2696 42.0973 15.6816 40.9773 15.6816H37.9813V18.8736ZM37.9813 23.4656H41.1313C41.8453 23.4656 42.3633 23.2836 42.6993 22.9616C42.9793 22.6676 43.1473 22.2756 43.1473 21.7996C43.1473 20.5536 42.2653 19.9376 41.0473 19.9376H37.9813V23.4656ZM49.0738 24.7956C46.8618 24.7956 45.5738 23.0876 45.5738 20.9876C45.5738 18.8876 46.9458 17.1796 49.0038 17.1796C49.8718 17.1796 50.5858 17.4456 51.1178 17.9356C51.9158 18.6496 52.3358 19.8256 52.3358 21.2536H46.7358C46.8198 22.7236 47.6178 23.8436 49.0738 23.8436C50.1238 23.8436 50.8238 23.3396 51.0758 22.3596H52.1818C51.8458 23.9136 50.7118 24.7956 49.0738 24.7956ZM46.7638 20.3996H51.1178C51.0478 18.9576 50.3058 18.0756 49.0038 18.0756C47.6598 18.0756 46.9318 19.0836 46.7638 20.3996ZM56.4687 24.8096C54.4807 24.8096 53.3747 23.8716 53.2627 22.2476H54.4247C54.5787 23.5076 55.4187 23.8576 56.4967 23.8576C57.6867 23.8576 58.1767 23.3396 58.1767 22.6676C58.1767 21.8556 57.6167 21.6456 56.2867 21.3656C54.8587 21.0716 53.5847 20.7776 53.5847 19.1956C53.5847 17.9916 54.5087 17.2076 56.1887 17.2076C57.9807 17.2076 58.8627 18.0616 59.0307 19.4756H57.8687C57.7567 18.5236 57.2387 18.1036 56.1607 18.1036C55.1247 18.1036 54.7047 18.5656 54.7047 19.1396C54.7047 19.9236 55.4047 20.0776 56.6507 20.3296C58.1067 20.6236 59.3247 20.9456 59.3247 22.6116C59.3247 24.0676 58.1347 24.8096 56.4687 24.8096ZM62.7375 24.6416C61.8135 24.6416 61.1415 24.2636 61.1415 23.2416V18.2856H60.0915V17.3616H61.1415V15.0796H62.2755V17.3616H63.6755V18.2856H62.2755V22.9896C62.2755 23.4936 62.5415 23.6616 63.0035 23.6616C63.2275 23.6616 63.4795 23.6056 63.6055 23.5636H63.6475V24.5436C63.3815 24.5996 63.0735 24.6416 62.7375 24.6416ZM72.325 24.8096C69.301 24.8096 67.425 22.5836 67.425 19.5876C67.425 16.5916 69.301 14.3656 72.325 14.3656C75.349 14.3656 77.225 16.5916 77.225 19.5876C77.225 22.5836 75.349 24.8096 72.325 24.8096ZM72.325 23.7036C74.677 23.7036 75.937 21.9396 75.937 19.5876C75.937 17.2356 74.677 15.4576 72.325 15.4576C69.973 15.4576 68.713 17.2356 68.713 19.5876C68.713 21.9396 69.973 23.7036 72.325 23.7036ZM79.3708 24.5996V18.2856H78.3768V17.3616H79.3708V16.2836C79.3708 15.0376 80.0848 14.5896 81.2888 14.5896C81.5128 14.5896 81.6808 14.6036 81.8348 14.6176V15.5836C81.6668 15.5696 81.5968 15.5696 81.4848 15.5696C80.7708 15.5696 80.5048 15.7516 80.5048 16.3396V17.3616H82.8148V16.1996C82.8148 14.9536 83.5288 14.5056 84.7328 14.5056C84.9708 14.5056 85.1528 14.5196 85.3068 14.5336V15.4996C85.1108 15.4856 85.0548 15.4856 84.9428 15.4856C84.2148 15.4856 83.9488 15.6676 83.9488 16.2556V17.3616H85.2928V18.2856H83.9488V24.5996H82.8148V18.2856H80.5048V24.5996H79.3708ZM89.5683 24.7956C87.3563 24.7956 86.0683 23.0876 86.0683 20.9876C86.0683 18.8876 87.4403 17.1796 89.4983 17.1796C90.3663 17.1796 91.0803 17.4456 91.6123 17.9356C92.4103 18.6496 92.8303 19.8256 92.8303 21.2536H87.2303C87.3143 22.7236 88.1123 23.8436 89.5683 23.8436C90.6183 23.8436 91.3183 23.3396 91.5703 22.3596H92.6763C92.3403 23.9136 91.2063 24.7956 89.5683 24.7956ZM87.2583 20.3996H91.6123C91.5423 18.9576 90.8003 18.0756 89.4983 18.0756C88.1543 18.0756 87.4263 19.0836 87.2583 20.3996ZM94.2191 24.5996V17.3616H95.3531V18.5656H95.3811C95.8151 17.8656 96.5711 17.2776 97.5371 17.2776C97.7471 17.2776 97.8591 17.3056 97.9991 17.3616V18.4536C97.4251 18.2996 96.7531 18.4116 96.2771 18.7336C95.7311 19.0976 95.3531 19.7416 95.3531 20.5816V24.5996H94.2191Z" fill="white"/>
</svg>
