<?xml version="1.0" ?><svg viewBox="0 0 32 32" xmlns="http://www.w3.org/2000/svg"><title/><g data-name="Layer 26" id="Layer_26"><path d="M25.71,21.48,20.23,16l5.48-5.48a3,3,0,0,0,0-4.23,3.06,3.06,0,0,0-4.23,0L16,11.77,10.52,6.29a3.06,3.06,0,0,0-4.23,0,3,3,0,0,0,0,4.23L11.77,16,6.29,21.48a3,3,0,0,0,4.23,4.23L16,20.23l5.48,5.48a3,3,0,0,0,4.23-4.23ZM24.29,24.3a1,1,0,0,1-1.4,0l-6.18-6.18a1,1,0,0,0-1.41,0L9.11,24.3a1,1,0,0,1-1.41,0,1,1,0,0,1,0-1.4l6.18-6.18a1,1,0,0,0,0-1.41L7.7,9.11a1,1,0,0,1,0-1.41,1,1,0,0,1,1.4,0l6.18,6.18a1,1,0,0,0,1.41,0L22.89,7.7a1,1,0,0,1,1.41,0,1,1,0,0,1,0,1.4l-6.18,6.18a1,1,0,0,0,0,1.41l6.18,6.18A1,1,0,0,1,24.29,24.3Z"/></g></svg>