<svg width="25" height="26" viewBox="0 0 25 26" fill="none" xmlns="http://www.w3.org/2000/svg">
<g opacity="0.75">
<path d="M8.53099 2.39844C4.93015 2.39844 2 5.33079 2 8.93434V17.9841C2 21.5876 4.93015 24.52 8.53099 24.52H17.5739C21.1747 24.52 24.1049 21.5876 24.1049 17.9841V8.93434C24.1049 5.33079 21.1747 2.39844 17.5739 2.39844H8.53099ZM8.53099 3.40396H17.5739C20.6317 3.40396 23.1001 5.87429 23.1001 8.93434V17.9841C23.1001 21.0441 20.6317 23.5144 17.5739 23.5144H8.53099C5.47324 23.5144 3.00477 21.0441 3.00477 17.9841V8.93434C3.00477 5.87429 5.47324 3.40396 8.53099 3.40396ZM19.0811 6.42053C18.8146 6.42053 18.559 6.52647 18.3706 6.71504C18.1821 6.90361 18.0763 7.15937 18.0763 7.42606C18.0763 7.69274 18.1821 7.9485 18.3706 8.13707C18.559 8.32564 18.8146 8.43158 19.0811 8.43158C19.3475 8.43158 19.6031 8.32564 19.7915 8.13707C19.98 7.9485 20.0858 7.69274 20.0858 7.42606C20.0858 7.15937 19.98 6.90361 19.7915 6.71504C19.6031 6.52647 19.3475 6.42053 19.0811 6.42053ZM13.0524 7.92882C10.0063 7.92882 7.52622 10.4108 7.52622 13.4592C7.52622 16.5076 10.0063 18.9896 13.0524 18.9896C16.0985 18.9896 18.5787 16.5076 18.5787 13.4592C18.5787 10.4108 16.0985 7.92882 13.0524 7.92882ZM13.0524 8.93434C15.5555 8.93434 17.5739 10.9542 17.5739 13.4592C17.5739 15.9642 15.5555 17.9841 13.0524 17.9841C10.5494 17.9841 8.53099 15.9642 8.53099 13.4592C8.53099 10.9542 10.5494 8.93434 13.0524 8.93434Z" fill="white"/>
</g>
</svg>
