<svg width="9" height="10" viewBox="0 0 9 10" fill="none" xmlns="http://www.w3.org/2000/svg">
<path d="M7.67601 4.33517H5.66473L7.08689 2.91302C7.33151 2.66839 7.33151 2.27106 7.08689 2.02643C6.84226 1.78181 6.44493 1.78181 6.2003 2.02643L4.77815 3.44859V1.43731C4.77815 1.09136 4.49734 0.810547 4.15139 0.810547C3.80544 0.810547 3.52463 1.09136 3.52463 1.43731V3.44859L2.10247 2.02643C1.85785 1.78181 1.46051 1.78181 1.21589 2.02643C0.971262 2.27106 0.971262 2.66839 1.21589 2.91302L2.63804 4.33517H0.626759C0.28081 4.33517 0 4.61598 0 4.96193C0 5.30788 0.28081 5.5887 0.626759 5.5887H2.63804L1.21589 7.01085C0.971262 7.25547 0.971262 7.65281 1.21589 7.89743C1.46051 8.14206 1.85785 8.14206 2.10247 7.89743L3.52463 6.47528V8.48656C3.52463 8.83251 3.80544 9.11332 4.15139 9.11332C4.49734 9.11332 4.77815 8.83251 4.77815 8.48656V6.47528L6.2003 7.89743C6.44493 8.14206 6.84226 8.14206 7.08689 7.89743C7.33151 7.65281 7.33151 7.25547 7.08689 7.01085L5.66473 5.5887H7.67601C8.02196 5.5887 8.30277 5.30788 8.30277 4.96193C8.30277 4.61598 8.02196 4.33517 7.67601 4.33517ZM5.1241 4.96193C5.1241 5.49967 4.6884 5.93537 4.15066 5.93537C3.61292 5.93537 3.17723 5.49967 3.17723 4.96193C3.17723 4.42419 3.61292 3.9885 4.15066 3.9885C4.6884 3.9885 5.1241 4.42419 5.1241 4.96193Z" fill="#F74421"/>
</svg>
