<svg width="8" height="7" viewBox="0 0 8 7" fill="none" xmlns="http://www.w3.org/2000/svg">
<path d="M7.3397 5.62047L5.41668 3.64644C5.23501 3.46081 5.23501 3.16199 5.41668 2.97636L7.15803 1.18796C7.41946 0.920831 7.43718 0.481654 7.18019 0.209999C6.91876 -0.0661845 6.48896 -0.0707121 6.22754 0.200944L4.47289 2.00745C4.29122 2.19309 3.99878 2.19309 3.81711 2.00745L2.07575 0.219054C1.81876 -0.0480741 1.39339 -0.0661845 1.12753 0.191888C0.857242 0.459017 0.857242 0.898193 1.11867 1.16985L2.87332 2.97183C3.05499 3.15746 3.05499 3.46081 2.87332 3.64192L0.963585 5.60689C0.702159 5.87402 0.684436 6.3132 0.94143 6.58485C1.19842 6.85651 1.63266 6.86556 1.89408 6.59391L3.81711 4.61535C3.99878 4.42972 4.29122 4.42972 4.47289 4.61535L6.39591 6.58938C6.65734 6.85651 7.07828 6.85651 7.3397 6.58938C7.64101 6.29056 7.60113 5.89213 7.3397 5.62047Z" fill="#8A8A8A"/>
</svg>
