<svg width="29" height="28" viewBox="0 0 29 28" fill="none" xmlns="http://www.w3.org/2000/svg">
<path d="M28.096 23.1738L19.8818 15.0283C19.1115 14.2645 19.1115 13.0232 19.8818 12.2593L27.3109 4.8924C28.4219 3.79067 28.5034 1.98628 27.4146 0.864959C26.3036 -0.275946 24.4716 -0.288187 23.3457 0.828235L15.85 8.26125C15.0797 9.02512 13.8279 9.02512 13.0576 8.26125L5.62852 0.894339C4.51749 -0.207393 2.69787 -0.288187 1.56709 0.79151C0.416557 1.89324 0.404206 3.70987 1.53005 4.8263L9.02581 12.2593C9.79612 13.0232 9.79612 14.2645 9.02581 15.0283L0.87825 23.1077C-0.23278 24.2094 -0.314259 26.0138 0.77455 27.1351C1.86336 28.2565 3.71755 28.2883 4.84339 27.1719L13.0576 19.0264C13.8279 18.2625 15.0797 18.2625 15.85 19.0264L24.0642 27.1719C25.1777 28.276 26.9825 28.276 28.096 27.1719C29.3898 25.9306 29.2095 24.278 28.096 23.1738Z" fill="black"/>
</svg>
