<svg width="18" height="18" viewBox="0 0 18 18" fill="none" xmlns="http://www.w3.org/2000/svg">
<path d="M3.0538 14.762C3.33917 14.762 3.5705 14.5307 3.5705 14.2453C3.5705 13.96 3.33917 13.7286 3.0538 13.7286C2.76844 13.7286 2.53711 13.96 2.53711 14.2453C2.53711 14.5307 2.76844 14.762 3.0538 14.762Z" fill="#181818"/>
<path d="M4.19077 13.6351C4.47613 13.6351 4.70746 13.4037 4.70746 13.1184C4.70746 12.833 4.47613 12.6017 4.19077 12.6017C3.90541 12.6017 3.67407 12.833 3.67407 13.1184C3.67407 13.4037 3.90541 13.6351 4.19077 13.6351Z" fill="#181818"/>
<path d="M5.31699 12.5095C5.60235 12.5095 5.83368 12.2781 5.83368 11.9928C5.83368 11.7074 5.60235 11.4761 5.31699 11.4761C5.03162 11.4761 4.80029 11.7074 4.80029 11.9928C4.80029 12.2781 5.03162 12.5095 5.31699 12.5095Z" fill="#181818"/>
<path d="M6.45395 11.3826C6.73931 11.3826 6.97065 11.1513 6.97065 10.8659C6.97065 10.5806 6.73931 10.3492 6.45395 10.3492C6.16859 10.3492 5.93726 10.5806 5.93726 10.8659C5.93726 11.1513 6.16859 11.3826 6.45395 11.3826Z" fill="#181818"/>
<path d="M7.58017 10.2571C7.86553 10.2571 8.09686 10.0258 8.09686 9.74045C8.09686 9.45509 7.86553 9.22375 7.58017 9.22375C7.29481 9.22375 7.06348 9.45509 7.06348 9.74045C7.06348 10.0258 7.29481 10.2571 7.58017 10.2571Z" fill="#181818"/>
<path d="M8.71713 9.13019C9.0025 9.13019 9.23383 8.89886 9.23383 8.6135C9.23383 8.32813 9.0025 8.0968 8.71713 8.0968C8.43177 8.0968 8.20044 8.32813 8.20044 8.6135C8.20044 8.89886 8.43177 9.13019 8.71713 9.13019Z" fill="#181818"/>
<path d="M9.84335 8.00324C10.1287 8.00324 10.36 7.77191 10.36 7.48654C10.36 7.20118 10.1287 6.96985 9.84335 6.96985C9.55799 6.96985 9.32666 7.20118 9.32666 7.48654C9.32666 7.77191 9.55799 8.00324 9.84335 8.00324Z" fill="#181818"/>
<path d="M10.9803 6.87775C11.2657 6.87775 11.497 6.64642 11.497 6.36105C11.497 6.07569 11.2657 5.84436 10.9803 5.84436C10.695 5.84436 10.4636 6.07569 10.4636 6.36105C10.4636 6.64642 10.695 6.87775 10.9803 6.87775Z" fill="#181818"/>
<path d="M12.1067 5.75079C12.392 5.75079 12.6234 5.51946 12.6234 5.2341C12.6234 4.94874 12.392 4.71741 12.1067 4.71741C11.8213 4.71741 11.59 4.94874 11.59 5.2341C11.59 5.51946 11.8213 5.75079 12.1067 5.75079Z" fill="#181818"/>
<path d="M13.2435 4.62531C13.5289 4.62531 13.7602 4.39397 13.7602 4.10861C13.7602 3.82325 13.5289 3.59192 13.2435 3.59192C12.9581 3.59192 12.7268 3.82325 12.7268 4.10861C12.7268 4.39397 12.9581 4.62531 13.2435 4.62531Z" fill="#181818"/>
<path d="M14.3751 3.49835C14.6605 3.49835 14.8918 3.26702 14.8918 2.98166C14.8918 2.6963 14.6605 2.46497 14.3751 2.46497C14.0897 2.46497 13.8584 2.6963 13.8584 2.98166C13.8584 3.26702 14.0897 3.49835 14.3751 3.49835Z" fill="#181818"/>
<path d="M3.08041 3.46954C3.36578 3.46954 3.59711 3.23821 3.59711 2.95285C3.59711 2.66749 3.36578 2.43616 3.08041 2.43616C2.79505 2.43616 2.56372 2.66749 2.56372 2.95285C2.56372 3.23821 2.79505 3.46954 3.08041 3.46954Z" fill="#181818"/>
<path d="M4.20676 4.60077C4.49212 4.60077 4.72345 4.36944 4.72345 4.08408C4.72345 3.79872 4.49212 3.56738 4.20676 3.56738C3.9214 3.56738 3.69006 3.79872 3.69006 4.08408C3.69006 4.36944 3.9214 4.60077 4.20676 4.60077Z" fill="#181818"/>
<path d="M5.33298 5.73346C5.61834 5.73346 5.84967 5.50213 5.84967 5.21677C5.84967 4.9314 5.61834 4.70007 5.33298 4.70007C5.04762 4.70007 4.81628 4.9314 4.81628 5.21677C4.81628 5.50213 5.04762 5.73346 5.33298 5.73346Z" fill="#181818"/>
<path d="M6.45395 6.86615C6.73931 6.86615 6.97064 6.63482 6.97064 6.34946C6.97064 6.06409 6.73931 5.83276 6.45395 5.83276C6.16859 5.83276 5.93726 6.06409 5.93726 6.34946C5.93726 6.63482 6.16859 6.86615 6.45395 6.86615Z" fill="#181818"/>
<path d="M7.58554 7.9975C7.8709 7.9975 8.10223 7.76617 8.10223 7.4808C8.10223 7.19544 7.8709 6.96411 7.58554 6.96411C7.30018 6.96411 7.06885 7.19544 7.06885 7.4808C7.06885 7.76617 7.30018 7.9975 7.58554 7.9975Z" fill="#181818"/>
<path d="M8.71188 9.13007C8.99725 9.13007 9.22858 8.89874 9.22858 8.61337C9.22858 8.32801 8.99725 8.09668 8.71188 8.09668C8.42652 8.09668 8.19519 8.32801 8.19519 8.61337C8.19519 8.89874 8.42652 9.13007 8.71188 9.13007Z" fill="#181818"/>
<path d="M9.83823 10.2629C10.1236 10.2629 10.3549 10.0315 10.3549 9.74619C10.3549 9.46082 10.1236 9.22949 9.83823 9.22949C9.55287 9.22949 9.32153 9.46082 9.32153 9.74619C9.32153 10.0315 9.55287 10.2629 9.83823 10.2629Z" fill="#181818"/>
<path d="M10.9644 11.3941C11.2498 11.3941 11.4811 11.1628 11.4811 10.8774C11.4811 10.592 11.2498 10.3607 10.9644 10.3607C10.6791 10.3607 10.4478 10.592 10.4478 10.8774C10.4478 11.1628 10.6791 11.3941 10.9644 11.3941Z" fill="#181818"/>
<path d="M12.0908 12.5268C12.3762 12.5268 12.6075 12.2955 12.6075 12.0101C12.6075 11.7247 12.3762 11.4934 12.0908 11.4934C11.8054 11.4934 11.5741 11.7247 11.5741 12.0101C11.5741 12.2955 11.8054 12.5268 12.0908 12.5268Z" fill="#181818"/>
<path d="M13.217 13.6595C13.5024 13.6595 13.7337 13.4282 13.7337 13.1428C13.7337 12.8574 13.5024 12.6261 13.217 12.6261C12.9316 12.6261 12.7003 12.8574 12.7003 13.1428C12.7003 13.4282 12.9316 13.6595 13.217 13.6595Z" fill="#181818"/>
<path d="M14.3434 14.7907C14.6287 14.7907 14.86 14.5594 14.86 14.274C14.86 13.9887 14.6287 13.7573 14.3434 13.7573C14.058 13.7573 13.8267 13.9887 13.8267 14.274C13.8267 14.5594 14.058 14.7907 14.3434 14.7907Z" fill="#181818"/>
<path d="M0.726899 9.11005C1.01226 9.11005 1.24359 8.87872 1.24359 8.59335C1.24359 8.30799 1.01226 8.07666 0.726899 8.07666C0.441536 8.07666 0.210205 8.30799 0.210205 8.59335C0.210205 8.87872 0.441536 9.11005 0.726899 9.11005Z" fill="#181818"/>
<path d="M2.32602 9.11298C2.61138 9.11298 2.84272 8.88165 2.84272 8.59628C2.84272 8.31092 2.61138 8.07959 2.32602 8.07959C2.04066 8.07959 1.80933 8.31092 1.80933 8.59628C1.80933 8.88165 2.04066 9.11298 2.32602 9.11298Z" fill="#181818"/>
<path d="M3.92514 9.11725C4.2105 9.11725 4.44183 8.88592 4.44183 8.60056C4.44183 8.31519 4.2105 8.08386 3.92514 8.08386C3.63978 8.08386 3.40845 8.31519 3.40845 8.60056C3.40845 8.88592 3.63978 9.11725 3.92514 9.11725Z" fill="#181818"/>
<path d="M5.51901 9.12128C5.80438 9.12128 6.03571 8.88995 6.03571 8.60458C6.03571 8.31922 5.80438 8.08789 5.51901 8.08789C5.23365 8.08789 5.00232 8.31922 5.00232 8.60458C5.00232 8.88995 5.23365 9.12128 5.51901 9.12128Z" fill="#181818"/>
<path d="M11.9049 9.13886C12.1902 9.13886 12.4216 8.90752 12.4216 8.62216C12.4216 8.3368 12.1902 8.10547 11.9049 8.10547C11.6195 8.10547 11.3882 8.3368 11.3882 8.62216C11.3882 8.90752 11.6195 9.13886 11.9049 9.13886Z" fill="#181818"/>
<path d="M13.4986 9.14313C13.784 9.14313 14.0153 8.9118 14.0153 8.62643C14.0153 8.34107 13.784 8.10974 13.4986 8.10974C13.2133 8.10974 12.9819 8.34107 12.9819 8.62643C12.9819 8.9118 13.2133 9.14313 13.4986 9.14313Z" fill="#181818"/>
<path d="M15.0977 9.1474C15.3831 9.1474 15.6144 8.91607 15.6144 8.63071C15.6144 8.34534 15.3831 8.11401 15.0977 8.11401C14.8124 8.11401 14.5811 8.34534 14.5811 8.63071C14.5811 8.91607 14.8124 9.1474 15.0977 9.1474Z" fill="#181818"/>
<path d="M16.6916 9.15058C16.977 9.15058 17.2083 8.91924 17.2083 8.63388C17.2083 8.34852 16.977 8.11719 16.6916 8.11719C16.4063 8.11719 16.1749 8.34852 16.1749 8.63388C16.1749 8.91924 16.4063 9.15058 16.6916 9.15058Z" fill="#181818"/>
<path d="M8.73312 1.1164C9.01849 1.1164 9.24982 0.885064 9.24982 0.599702C9.24982 0.31434 9.01849 0.0830078 8.73312 0.0830078C8.44776 0.0830078 8.21643 0.31434 8.21643 0.599702C8.21643 0.885064 8.44776 1.1164 8.73312 1.1164Z" fill="#181818"/>
<path d="M8.72788 2.71259C9.01324 2.71259 9.24457 2.48126 9.24457 2.19589C9.24457 1.91053 9.01324 1.6792 8.72788 1.6792C8.44251 1.6792 8.21118 1.91053 8.21118 2.19589C8.21118 2.48126 8.44251 2.71259 8.72788 2.71259Z" fill="#181818"/>
<path d="M8.7225 4.31012C9.00787 4.31012 9.2392 4.07879 9.2392 3.79343C9.2392 3.50806 9.00787 3.27673 8.7225 3.27673C8.43714 3.27673 8.20581 3.50806 8.20581 3.79343C8.20581 4.07879 8.43714 4.31012 8.7225 4.31012Z" fill="#181818"/>
<path d="M8.71713 5.90619C9.0025 5.90619 9.23383 5.67486 9.23383 5.3895C9.23383 5.10413 9.0025 4.8728 8.71713 4.8728C8.43177 4.8728 8.20044 5.10413 8.20044 5.3895C8.20044 5.67486 8.43177 5.90619 8.71713 5.90619Z" fill="#181818"/>
<path d="M8.70663 12.2951C8.992 12.2951 9.22333 12.0638 9.22333 11.7784C9.22333 11.493 8.992 11.2617 8.70663 11.2617C8.42127 11.2617 8.18994 11.493 8.18994 11.7784C8.18994 12.0638 8.42127 12.2951 8.70663 12.2951Z" fill="#181818"/>
<path d="M8.69589 13.8913C8.98125 13.8913 9.21259 13.66 9.21259 13.3746C9.21259 13.0892 8.98125 12.8579 8.69589 12.8579C8.41053 12.8579 8.1792 13.0892 8.1792 13.3746C8.1792 13.66 8.41053 13.8913 8.69589 13.8913Z" fill="#181818"/>
<path d="M8.69589 15.4888C8.98125 15.4888 9.21259 15.2575 9.21259 14.9721C9.21259 14.6868 8.98125 14.4554 8.69589 14.4554C8.41053 14.4554 8.1792 14.6868 8.1792 14.9721C8.1792 15.2575 8.41053 15.4888 8.69589 15.4888Z" fill="#181818"/>
<path d="M8.69065 17.0849C8.97601 17.0849 9.20734 16.8536 9.20734 16.5682C9.20734 16.2828 8.97601 16.0515 8.69065 16.0515C8.40529 16.0515 8.17395 16.2828 8.17395 16.5682C8.17395 16.8536 8.40529 17.0849 8.69065 17.0849Z" fill="#181818"/>
</svg>
