<svg width="13" height="14" viewBox="0 0 13 14" fill="none" xmlns="http://www.w3.org/2000/svg">
<path d="M10.8156 0.932496C11.8862 0.376266 13.0369 1.52788 12.4811 2.59926L10.5389 6.343C10.3537 6.70011 10.3537 7.12511 10.5389 7.48222L12.4811 11.226C13.0369 12.2973 11.8862 13.449 10.8156 12.8927L7.07467 10.9491C6.71783 10.7637 6.29315 10.7637 5.93631 10.9491L2.19539 12.8927C1.12481 13.449 -0.0259354 12.2973 0.529876 11.226L2.47204 7.48222C2.6573 7.12511 2.6573 6.70011 2.47204 6.343L0.529875 2.59926C-0.0259365 1.52788 1.12481 0.376267 2.19539 0.932497L5.93631 2.87612C6.29315 3.06152 6.71783 3.06152 7.07467 2.87612L10.8156 0.932496Z" fill="#F74421"/>
</svg>
