<svg width="25" height="26" viewBox="0 0 25 26" fill="none" xmlns="http://www.w3.org/2000/svg">
<g opacity="0.75" clip-path="url(#clip0_1_1552)">
<path d="M18.115 2.39844C14.9497 2.39844 12.3758 4.95011 12.3758 8.08795C12.3758 8.2765 12.4233 8.46096 12.4419 8.64542C8.52829 8.27446 5.06741 6.40528 2.71674 3.54618C2.60716 3.40886 2.43763 3.33508 2.25984 3.34737C2.0841 3.35967 1.92698 3.4601 1.84015 3.61176C1.34603 4.45412 1.06279 5.42355 1.06279 6.46472C1.06279 7.72518 1.51763 8.87907 2.22055 9.82595C2.0841 9.76652 1.93525 9.73372 1.80707 9.66199C1.64374 9.57591 1.44733 9.58001 1.28814 9.67429C1.12895 9.76857 1.03178 9.93868 1.02971 10.1211V10.1867C1.02971 12.1194 2.03862 13.798 3.52717 14.8268C3.51063 14.8248 3.49409 14.8309 3.47755 14.8268C3.29562 14.7961 3.11162 14.8596 2.98964 14.9969C2.86766 15.1342 2.82838 15.3249 2.88213 15.4991C3.47342 17.3211 4.98264 18.7127 6.8516 19.221C5.36305 20.0982 3.63674 20.6147 1.77399 20.6147C1.37084 20.6147 0.984229 20.5942 0.599686 20.5491C0.351594 20.5163 0.113839 20.6598 0.0311419 20.8934C-0.0536228 21.1271 0.0394117 21.3874 0.252357 21.5165C2.64024 23.0352 5.47469 23.9268 8.52209 23.9268C13.4612 23.9268 17.3356 21.8813 19.9343 18.9587C22.5331 16.036 23.8873 12.2403 23.8873 8.69461C23.8873 8.54499 23.8748 8.39948 23.8707 8.25191C24.8403 7.51613 25.7066 6.65327 26.3847 5.6449C26.5191 5.4502 26.5046 5.18991 26.3496 5.00955C26.1966 4.82919 25.9381 4.77385 25.7231 4.87428C25.4502 4.9952 25.1318 5.0075 24.8465 5.10382C25.2228 4.60579 25.5453 4.06881 25.7397 3.4642C25.8058 3.25719 25.7335 3.02969 25.5619 2.89443C25.3903 2.76121 25.1505 2.74481 24.9623 2.85753C24.0588 3.38836 23.0582 3.76138 22.0018 3.98888C20.9763 3.03789 19.6263 2.39844 18.115 2.39844ZM18.115 3.4478C19.465 3.4478 20.6848 4.01962 21.5386 4.92347C21.6668 5.05464 21.855 5.10997 22.0348 5.07103C22.7254 4.93576 23.3807 4.73696 24.0196 4.48077C23.6516 4.97265 23.1967 5.39281 22.6633 5.71049C22.4214 5.82731 22.3077 6.104 22.3966 6.35609C22.4835 6.60613 22.7481 6.75165 23.0107 6.69426C23.5399 6.63073 24.0113 6.41758 24.5158 6.28436C24.063 6.7701 23.5668 7.2087 23.0272 7.59606C22.8804 7.70263 22.7998 7.8748 22.8122 8.05515C22.8205 8.26831 22.8287 8.47941 22.8287 8.69461C22.8287 11.9739 21.5593 15.5339 19.1404 18.2536C16.7215 20.9734 13.1697 22.8774 8.52209 22.8774C6.41124 22.8774 4.41823 22.4142 2.6175 21.5985C4.85033 21.4284 6.90949 20.6455 8.57171 19.3522C8.74537 19.2149 8.8136 18.9853 8.7433 18.7763C8.67301 18.5672 8.47867 18.4238 8.25746 18.4176C6.51254 18.3869 5.05087 17.3805 4.27145 15.9582C4.30039 15.9582 4.3252 15.9582 4.35414 15.9582C4.8772 15.9582 5.39406 15.8926 5.87577 15.7614C6.10733 15.6938 6.26652 15.4806 6.25825 15.2408C6.24998 15.001 6.07838 14.7961 5.8427 14.7448C3.95926 14.3677 2.54721 12.847 2.22055 10.9573C2.75395 11.1397 3.29975 11.2832 3.89104 11.3016C4.13293 11.316 4.35208 11.1664 4.4265 10.9389C4.50093 10.7114 4.40997 10.4613 4.20529 10.3342C2.94829 9.50008 2.12132 8.07975 2.12132 6.46472C2.12132 5.86625 2.27844 5.31698 2.48518 4.79229C5.1315 7.67189 8.83634 9.58411 13.0208 9.79316C13.1862 9.80136 13.3475 9.73372 13.455 9.6087C13.5625 9.48163 13.6038 9.31357 13.5666 9.15371C13.486 8.81348 13.4343 8.45276 13.4343 8.08795C13.4343 5.51783 15.5224 3.4478 18.115 3.4478Z" fill="white"/>
</g>
<defs>
<clipPath id="clip0_1_1552">
<rect width="25" height="25" fill="white" transform="translate(0 0.398438)"/>
</clipPath>
</defs>
</svg>
